<?xml version="1.0" encoding="utf-8"?>
<!-- Generator: Adobe Illustrator 22.0.1, SVG Export Plug-In . SVG Version: 6.00 Build 0)  -->
<svg version="1.1" id="Ebene_1" xmlns="http://www.w3.org/2000/svg" xmlns:xlink="http://www.w3.org/1999/xlink" x="0px" y="0px"
	 viewBox="0 0 1338.9 443.9" style="enable-background:new 0 0 1338.9 443.9;" xml:space="preserve">
<style type="text/css">
	.st0{enable-background:new    ;}
</style>
<g class="st0">
	<path d="M60.1,61h59.7v268.1h124v53.2H60.1V61z"/>
	<path d="M430.4,57.2c91.4,0,163.2,73.7,163.2,165.1c0,90.5-71.8,164.6-163.2,164.6s-162.7-74.1-162.7-164.6
		C267.6,130.9,339,57.2,430.4,57.2z M430.4,328.1c57.8,0,103.5-47.1,103.5-105.8S488.2,116,430.4,116
		c-58.3,0-103.5,47.6-103.5,106.3S372.1,328.1,430.4,328.1z"/>
	<path d="M871,144.4c-18.7-19.1-43.8-31.2-72.7-31.2c-58.8,0-104,49-104,109.1c0,59.7,45.2,109.6,104,109.6
		c42.9,0,85.3-25.6,86.7-66.7h-88.1v-49h156.7c0,117.5-63,170.7-155.3,170.7c-91.9,0-163.7-74.1-163.7-164.6
		c0-91.4,71.8-165.1,163.7-165.1c47.1,0,88.6,19.1,116.6,49L871,144.4z"/>
	<path d="M1149.9,57.2c91.4,0,163.2,73.7,163.2,165.1c0,90.5-71.8,164.6-163.2,164.6s-162.7-74.1-162.7-164.6
		C987.1,130.9,1058.5,57.2,1149.9,57.2z M1149.9,328.1c57.8,0,103.5-47.1,103.5-105.8S1207.7,116,1149.9,116
		c-58.3,0-103.5,47.6-103.5,106.3S1091.6,328.1,1149.9,328.1z"/>
</g>
</svg>
